<?xml version="1.0" standalone="no"?>
<!DOCTYPE svg PUBLIC "-//W3C//DTD SVG 20010904//EN"
 "http://www.w3.org/TR/2001/REC-SVG-20010904/DTD/svg10.dtd">
<svg version="1.0" xmlns="http://www.w3.org/2000/svg"
 width="500.000000pt" height="500.000000pt" viewBox="0 0 500.000000 500.000000"
 preserveAspectRatio="xMidYMid meet">

<g transform="translate(0.000000,500.000000) scale(0.100000,-0.100000)"
fill="#000000" stroke="none">
<path d="M2126 4649 c-20 -17 -43 -52 -54 -82 l-19 -51 -57 3 c-30 1 -65 0
-76 -4 -18 -6 -19 -9 -6 -33 18 -36 9 -57 -57 -125 -74 -75 -101 -145 -92
-237 3 -36 8 -145 11 -243 5 -165 4 -180 -13 -192 -17 -13 -17 -14 5 -37 12
-14 22 -37 22 -54 0 -16 5 -36 10 -44 9 -13 11 -13 20 0 5 8 10 21 10 28 0 19
22 14 51 -11 16 -14 34 -48 47 -93 35 -112 85 -143 230 -144 137 0 189 33 219
141 14 53 20 59 55 74 48 19 91 19 128 0 23 -12 32 -27 46 -75 32 -114 90
-146 249 -138 148 8 184 40 219 198 3 14 19 33 36 43 l31 18 10 -30 c18 -52
39 -33 39 35 0 25 6 38 25 50 20 13 23 20 14 35 -5 11 -15 17 -21 13 -7 -5 -8
57 -4 207 10 315 11 304 -29 385 -39 81 -113 162 -202 222 -236 160 -503 203
-718 116 -57 -23 -61 -23 -73 -6 -7 9 -11 27 -9 40 6 30 -6 28 -47 -9z m267
-644 c49 -24 111 -43 197 -60 125 -25 350 -45 350 -31 0 5 -9 21 -21 37 -22
31 -63 138 -56 146 3 2 19 -18 36 -46 36 -56 117 -135 149 -145 12 -4 24 -17
27 -29 3 -12 16 -69 29 -127 33 -140 37 -136 -135 -120 -165 16 -305 7 -399
-26 -26 -9 -144 -10 -156 -2 -24 17 -152 38 -237 38 -49 0 -131 -5 -184 -11
-66 -8 -102 -8 -118 -1 l-23 10 30 124 30 123 107 110 c60 62 114 128 125 152
l19 42 79 -74 c51 -48 104 -87 151 -110z m-256 -435 c-33 -26 -41 -63 -23 -99
17 -32 34 -41 76 -41 73 0 102 88 45 138 l-30 25 60 -7 c108 -12 108 -12 100
-65 -19 -130 -61 -165 -200 -165 -101 -1 -156 14 -184 50 -20 26 -58 150 -48
160 8 9 103 21 171 23 l59 1 -26 -20z m609 -1 c-33 -26 -37 -88 -6 -119 31
-31 93 -27 119 6 29 37 26 70 -10 106 l-30 31 94 -7 c52 -4 106 -10 119 -14
l25 -7 -13 -54 c-35 -135 -63 -155 -219 -155 -124 -1 -153 12 -182 81 -25 58
-35 120 -22 129 11 7 91 21 128 23 l24 1 -27 -21z"/>
<path d="M2051 3741 c-50 -18 -111 -64 -99 -76 3 -3 36 -1 74 5 38 5 112 7
165 3 106 -6 169 7 169 35 0 33 -40 46 -150 49 -84 3 -116 0 -159 -16z"/>
<path d="M2663 3749 c-23 -12 -36 -35 -28 -50 13 -19 87 -29 178 -23 58 4 119
2 161 -5 38 -7 71 -10 74 -7 9 10 -31 47 -73 69 -33 18 -60 22 -165 24 -77 2
-133 -2 -147 -8z"/>
<path d="M2738 3086 c-53 -53 -114 -74 -243 -83 -105 -6 -166 7 -197 43 -12
13 -28 24 -35 24 -15 0 -10 -13 33 -81 l23 -37 58 14 c56 13 96 10 119 -7 6
-5 24 -3 42 7 26 12 41 13 92 4 59 -11 61 -11 85 17 32 37 89 143 76 143 -6 0
-30 -20 -53 -44z"/>
<path d="M2912 2838 c-8 -8 -1 -23 31 -58 23 -26 54 -72 70 -102 51 -102 55
-177 25 -427 -9 -76 -8 -95 3 -101 7 -5 16 -7 20 -5 6 4 22 134 34 280 12 141
-29 276 -116 378 -43 50 -49 53 -67 35z"/>
<path d="M2016 2800 c-49 -55 -93 -145 -107 -224 -10 -51 -10 -95 0 -201 6
-74 14 -147 17 -163 5 -24 2 -29 -29 -40 -44 -16 -112 -89 -140 -150 -14 -32
-22 -75 -25 -136 -4 -81 -3 -89 13 -83 9 4 19 7 21 7 2 0 4 26 4 59 0 90 26
157 85 218 36 37 60 53 88 58 115 22 234 -72 274 -217 13 -45 21 -58 36 -58
17 0 18 5 13 38 -12 65 -63 160 -110 206 -45 43 -115 76 -162 76 -27 0 -30 10
-45 164 -20 205 -1 291 92 413 36 48 43 73 20 73 -5 0 -25 -18 -45 -40z"/>
<path d="M2820 2764 c-108 -78 -218 -108 -365 -101 -121 6 -181 24 -264 77
-34 22 -63 40 -65 40 -2 0 11 -57 29 -127 73 -277 295 -1106 298 -1109 1 -1
23 2 48 7 l47 10 32 122 c17 67 69 262 115 432 109 403 175 655 175 666 0 14
-12 10 -50 -17z"/>
<path d="M2148 1393 c-26 -7 -30 -31 -6 -44 22 -12 68 2 68 20 0 9 -34 33 -42
30 -2 -1 -10 -3 -20 -6z"/>
<path d="M1936 1354 c-21 -20 -12 -34 23 -34 31 0 52 16 44 36 -7 19 -48 18
-67 -2z"/>
</g>
</svg>
